<svg 
 xmlns="http://www.w3.org/2000/svg"
 xmlns:xlink="http://www.w3.org/1999/xlink"
 width="25px" height="25px">
<path fill-rule="evenodd"  fill="rgb(181, 147, 82)"
 d="M21.335,3.663 C16.451,-1.222 8.538,-1.222 3.659,3.663 C-1.038,8.360 -1.215,15.873 3.134,20.783 L3.264,20.887 C2.791,21.906 1.981,23.163 0.692,23.797 C0.266,24.005 0.365,24.639 0.833,24.711 C2.241,24.929 4.262,24.685 6.148,23.261 L6.174,23.282 C10.964,26.098 17.231,25.454 21.346,21.339 C26.220,16.460 26.220,8.542 21.335,3.663 ZM16.618,17.848 C16.342,18.128 16.051,18.388 15.791,18.679 C15.412,19.105 14.934,19.240 14.394,19.209 C13.604,19.167 12.871,18.902 12.170,18.559 C10.606,17.801 9.271,16.746 8.154,15.416 C7.327,14.433 6.647,13.363 6.195,12.153 C5.976,11.566 5.821,10.968 5.867,10.334 C5.899,9.944 6.044,9.612 6.330,9.337 C6.642,9.040 6.932,8.734 7.239,8.432 C7.639,8.038 8.138,8.043 8.538,8.432 C8.787,8.677 9.026,8.921 9.271,9.165 C9.510,9.404 9.749,9.638 9.982,9.877 C10.398,10.298 10.398,10.786 9.982,11.207 C9.686,11.509 9.390,11.810 9.084,12.101 C9.006,12.179 8.995,12.241 9.037,12.340 C9.234,12.818 9.525,13.244 9.847,13.639 C10.497,14.439 11.235,15.151 12.118,15.701 C12.305,15.821 12.513,15.904 12.710,16.013 C12.809,16.070 12.882,16.050 12.960,15.966 C13.256,15.660 13.562,15.359 13.864,15.057 C14.264,14.662 14.763,14.662 15.158,15.057 C15.646,15.540 16.129,16.023 16.612,16.512 C17.028,16.938 17.028,17.437 16.618,17.848 ZM12.009,9.773 L12.165,8.661 C13.240,8.812 14.217,9.300 14.986,10.069 C15.719,10.802 16.197,11.722 16.368,12.735 L15.262,12.927 C15.126,12.143 14.758,11.430 14.191,10.864 C13.594,10.266 12.840,9.887 12.009,9.773 ZM18.176,12.735 C17.927,11.280 17.241,9.960 16.197,8.910 C15.095,7.809 13.698,7.113 12.154,6.894 L12.310,5.782 C14.092,6.032 15.714,6.837 16.986,8.115 C18.197,9.326 18.992,10.859 19.283,12.542 L18.176,12.735 Z"/>
</svg>